<svg width="4294" height="1172" xmlns="http://www.w3.org/2000/svg" xmlns:xlink="http://www.w3.org/1999/xlink" xml:space="preserve" overflow="hidden"><defs><clipPath id="clip0"><rect x="1666" y="283" width="4294" height="1172"/></clipPath></defs><g clip-path="url(#clip0)" transform="translate(-1666 -283)"><path d="M3946.14 692 4063.86 692C4155.06 692 4229 765.956 4229 857.185L4229 1149 4087.71 1149 4087.71 890.427C4087.71 844.737 4050.68 807.698 4005 807.698L4005 807.698 4005 807.698C3959.32 807.698 3922.29 844.737 3922.29 890.427L3922.29 1149 3781 1149 3781 857.185C3781 765.956 3854.94 692 3946.14 692Z" fill="#1E293B" fill-rule="evenodd"/><path d="M2634 583 2780.73 583 2921 1010.32 3062.08 583 3208 583 3007.26 1149 2834.74 1149 2634 583Z" fill="#1E293B" fill-rule="evenodd"/><path d="M4322 583 4460.49 583 4460.49 693.917 4551.19 693.917 4551.19 809.726 4460.49 809.726 4460.49 992.413C4460.49 1006.01 4463.73 1015.79 4470.2 1021.77 4476.68 1027.75 4487.48 1030.74 4502.6 1030.74L4552 1030.74 4552 1149 4481.54 1149C4431.33 1149 4392.19 1136.63 4364.11 1111.89 4336.04 1087.15 4322 1046.78 4322 990.781L4322 809.726 4322 583Z" fill="#F97316" fill-rule="evenodd"/><path d="M3463.61 686C3507.2 686 3545.94 695.143 3579.84 713.426 3613.74 731.708 3640.24 757.79 3659.35 791.667 3678.45 825.546 3688 865.07 3688 910.241 3688 923.147 3687.19 936.591 3685.58 950.572L3373.21 950.572C3375.37 978.534 3384.38 999.91 3400.25 1014.7 3416.13 1029.49 3435.63 1036.88 3458.77 1036.88 3493.21 1036.88 3517.15 1022.36 3530.61 993.322L3677.51 993.322C3669.97 1022.9 3656.39 1049.52 3636.75 1073.18 3617.1 1096.84 3592.49 1115.39 3562.89 1128.83 3533.3 1142.28 3500.2 1149 3463.61 1149 3419.49 1149 3380.21 1139.59 3345.77 1120.77 3311.33 1101.95 3284.43 1075.06 3265.06 1040.11 3245.69 1005.15 3236 964.284 3236 917.5 3236 870.717 3245.55 829.847 3264.65 794.894 3283.76 759.94 3310.53 733.053 3344.96 714.232 3379.4 695.411 3418.95 686 3463.61 686ZM3462 796.507C3438.86 796.507 3419.36 803.229 3403.48 816.673 3387.61 830.116 3377.79 849.207 3374.02 873.943L3546.75 873.943C3546.75 850.282 3538.68 831.461 3522.54 817.48 3506.39 803.499 3486.21 796.507 3462 796.507Z" fill="#1E293B" fill-rule="evenodd"/><path d="M165.142 0 282.858 0C374.064 0 448 73.9557 448 165.185L448 457 306.707 457 306.707 198.427C306.707 152.737 269.678 115.698 223.999 115.698L223.999 115.698 223.998 115.698C178.32 115.698 141.291 152.737 141.291 198.427L141.291 457 0 457 0 165.185C0 73.9557 73.9363 0 165.142 0Z" fill="#1E293B" fill-rule="evenodd" transform="matrix(1 0 0 -1 4645 1149)"/><path d="M5735.61 686C5779.2 686 5817.94 695.143 5851.84 713.426 5885.74 731.708 5912.24 757.79 5931.35 791.667 5950.45 825.546 5960 865.07 5960 910.241 5960 923.147 5959.19 936.591 5957.58 950.572L5645.21 950.572C5647.37 978.534 5656.38 999.91 5672.25 1014.7 5688.13 1029.49 5707.63 1036.88 5730.77 1036.88 5765.21 1036.88 5789.15 1022.36 5802.61 993.322L5949.51 993.322C5941.97 1022.9 5928.39 1049.52 5908.75 1073.18 5889.1 1096.84 5864.49 1115.39 5834.89 1128.83 5805.3 1142.28 5772.2 1149 5735.61 1149 5691.49 1149 5652.21 1139.59 5617.77 1120.77 5583.33 1101.95 5556.43 1075.06 5537.06 1040.11 5517.69 1005.15 5508 964.284 5508 917.5 5508 870.717 5517.55 829.847 5536.65 794.894 5555.76 759.94 5582.53 733.053 5616.96 714.232 5651.4 695.411 5690.95 686 5735.61 686ZM5734 796.507C5710.86 796.507 5691.36 803.229 5675.48 816.673 5659.61 830.116 5649.79 849.207 5646.02 873.943L5818.75 873.943C5818.75 850.282 5810.68 831.461 5794.54 817.48 5778.39 803.499 5758.21 796.507 5734 796.507Z" fill="#1E293B" fill-rule="evenodd"/><path d="M5383.85 686 5454 686 5454 804.308 5404.81 804.308C5389.76 804.308 5379.01 807.299 5372.56 813.283 5366.11 819.266 5362.88 829.057 5362.88 842.656L5362.88 1149 5225 1149 5225 1025.42 5225 844.288C5225 788.261 5238.98 747.874 5266.93 723.125 5294.88 698.375 5333.86 686 5383.85 686Z" fill="#1E293B" fill-rule="evenodd"/><path d="M362.063 112.416 100.055 538.774 624.07 538.774ZM362.064 0 724.126 589.176 0 589.176Z" fill="#F97316" fill-rule="evenodd" transform="matrix(0.866025 0.5 0.5 -0.866025 1371.68 1273.68)"/><path d="M1691.85 719.139 2361.28 283.778 2318.96 1081.2Z" fill="#1E293B" fill-rule="evenodd"/><path d="M5042.5 1270C5044.27 1270 5045.79 1270.57 5047.08 1271.71 5048.36 1272.85 5049 1274.6 5049 1276.97 5049 1279.33 5048.36 1281.1 5047.08 1282.26 5045.79 1283.42 5044.27 1284 5042.5 1284 5040.64 1284 5039.09 1283.42 5037.86 1282.26 5036.62 1281.1 5036 1279.33 5036 1276.97 5036 1274.56 5036.62 1272.8 5037.86 1271.68 5039.09 1270.56 5040.64 1270 5042.5 1270Z" fill-rule="evenodd"/><path d="M5463.5 1270C5465.27 1270 5466.79 1270.57 5468.08 1271.71 5469.36 1272.85 5470 1274.6 5470 1276.97 5470 1279.33 5469.36 1281.1 5468.08 1282.26 5466.79 1283.42 5465.27 1284 5463.5 1284 5461.64 1284 5460.1 1283.42 5458.86 1282.26 5457.62 1281.1 5457 1279.33 5457 1276.97 5457 1274.56 5457.62 1272.8 5458.86 1271.68 5460.1 1270.56 5461.64 1270 5463.5 1270Z" fill-rule="evenodd"/><path d="M2812 1273 2867 1273 2867 1283.02 2823.47 1283.02 2823.47 1318.51 2864.37 1318.51 2864.37 1328.53 2823.47 1328.53 2823.47 1370 2812 1370 2812 1273Z" fill-rule="evenodd"/><path d="M3403 1273 3432.94 1273C3448.14 1273 3459.95 1277.18 3468.37 1285.54 3476.79 1293.9 3481 1305.58 3481 1320.57 3481 1336.58 3476.62 1348.82 3467.87 1357.3 3459.11 1365.77 3446.51 1370 3430.07 1370L3403 1370 3403 1273ZM3414.36 1282.75 3414.36 1360.25 3428.2 1360.25C3441.74 1360.25 3451.93 1356.94 3458.74 1350.33 3465.56 1343.72 3468.97 1333.93 3468.97 1320.97 3468.97 1308.32 3465.77 1298.79 3459.38 1292.37 3452.98 1285.96 3443.48 1282.75 3430.87 1282.75L3414.36 1282.75Z" fill-rule="evenodd"/><path d="M4562 1273 4591.94 1273C4607.14 1273 4618.95 1277.18 4627.37 1285.54 4635.79 1293.9 4640 1305.58 4640 1320.57 4640 1336.58 4635.62 1348.82 4626.87 1357.3 4618.11 1365.77 4605.51 1370 4589.07 1370L4562 1370 4562 1273ZM4573.36 1282.75 4573.36 1360.25 4587.2 1360.25C4600.74 1360.25 4610.92 1356.94 4617.74 1350.33 4624.56 1343.72 4627.97 1333.93 4627.97 1320.97 4627.97 1308.32 4624.77 1298.79 4618.38 1292.37 4611.98 1285.96 4602.48 1282.75 4589.87 1282.75L4573.36 1282.75Z" fill-rule="evenodd"/><path d="M4259.04 1280 4265.4 1280 4265.4 1296.87 4286.47 1296.87 4286.47 1305.44 4265.4 1305.44 4265.4 1348.28C4265.4 1352.67 4266.44 1356.03 4268.51 1358.38 4270.59 1360.73 4273.44 1361.9 4277.06 1361.9 4279.01 1361.9 4280.88 1361.76 4282.69 1361.47 4284.5 1361.18 4285.94 1360.88 4287 1360.57L4287 1369.01C4285.81 1369.58 4284.05 1370.06 4281.73 1370.44 4279.41 1370.81 4277.33 1371 4275.47 1371 4261.43 1371 4254.4 1363.58 4254.4 1348.75L4254.4 1305.44 4244 1305.44 4244 1300.13 4254.4 1295.54 4259.04 1280Z" fill-rule="evenodd"/><path d="M4952.04 1280 4958.4 1280 4958.4 1296.87 4979.47 1296.87 4979.47 1305.44 4958.4 1305.44 4958.4 1348.28C4958.4 1352.67 4959.44 1356.03 4961.51 1358.38 4963.59 1360.73 4966.44 1361.9 4970.06 1361.9 4972.01 1361.9 4973.88 1361.76 4975.69 1361.47 4977.5 1361.18 4978.94 1360.88 4980 1360.57L4980 1369.01C4978.81 1369.58 4977.05 1370.06 4974.73 1370.44 4972.41 1370.81 4970.33 1371 4968.47 1371 4954.43 1371 4947.4 1363.58 4947.4 1348.75L4947.4 1305.44 4937 1305.44 4937 1300.13 4947.4 1295.54 4952.04 1280Z" fill-rule="evenodd"/><path d="M5372.04 1280 5378.4 1280 5378.4 1296.87 5399.47 1296.87 5399.47 1305.44 5378.4 1305.44 5378.4 1348.28C5378.4 1352.67 5379.44 1356.03 5381.51 1358.38 5383.59 1360.73 5386.44 1361.9 5390.06 1361.9 5392.01 1361.9 5393.88 1361.76 5395.69 1361.47 5397.5 1361.18 5398.94 1360.88 5400 1360.57L5400 1369.01C5398.81 1369.58 5397.05 1370.06 5394.73 1370.44 5392.41 1370.81 5390.33 1371 5388.47 1371 5374.43 1371 5367.4 1363.58 5367.4 1348.75L5367.4 1305.44 5357 1305.44 5357 1300.13 5367.4 1295.54 5372.04 1280Z" fill-rule="evenodd"/><path d="M2957.28 1296C2960.52 1296 2963.43 1296.26 2966 1296.79L2964.47 1307.01C2961.45 1306.34 2958.79 1306.01 2956.48 1306.01 2950.58 1306.01 2945.53 1308.4 2941.34 1313.17 2937.15 1317.95 2935.05 1323.89 2935.05 1331.01L2935.05 1370 2924 1370 2924 1297.33 2933.12 1297.33 2934.38 1310.79 2934.92 1310.79C2937.62 1306.06 2940.88 1302.41 2944.7 1299.85 2948.52 1297.28 2952.71 1296 2957.28 1296Z" fill-rule="evenodd"/><path d="M3056.67 1296C3066.87 1296 3074.97 1299.37 3080.98 1306.1 3086.99 1312.83 3090 1321.95 3090 1333.43 3090 1345.23 3087.01 1354.44 3081.02 1361.06 3075.03 1367.69 3066.76 1371 3056.2 1371 3049.68 1371 3043.89 1369.48 3038.83 1366.45 3033.78 1363.41 3029.88 1359.05 3027.12 1353.37 3024.37 1347.69 3023 1341.05 3023 1333.43 3023 1321.64 3025.97 1312.45 3031.91 1305.87 3037.86 1299.29 3046.11 1296 3056.67 1296ZM3056.33 1305.31C3049.1 1305.31 3043.65 1307.66 3039.97 1312.37 3036.28 1317.08 3034.44 1324.1 3034.44 1333.43 3034.44 1342.68 3036.31 1349.72 3040.03 1354.56 3043.76 1359.4 3049.24 1361.82 3056.47 1361.82 3063.7 1361.82 3069.19 1359.41 3072.93 1354.59 3076.68 1349.77 3078.56 1342.72 3078.56 1333.43 3078.56 1324.23 3076.68 1317.25 3072.93 1312.47 3069.19 1307.7 3063.65 1305.31 3056.33 1305.31Z" fill-rule="evenodd"/><path d="M3184.87 1296C3196.27 1296 3203.72 1300.11 3207.23 1308.33L3207.76 1308.33C3209.93 1304.53 3213.08 1301.53 3217.21 1299.31 3221.33 1297.1 3226.03 1296 3231.31 1296 3239.57 1296 3245.74 1298.11 3249.84 1302.33 3253.95 1306.55 3256 1313.31 3256 1322.59L3256 1370 3244.95 1370 3244.95 1322.72C3244.95 1316.93 3243.71 1312.59 3241.23 1309.69 3238.74 1306.8 3234.88 1305.35 3229.65 1305.35 3222.77 1305.35 3217.7 1307.32 3214.41 1311.25 3211.13 1315.19 3209.49 1321.24 3209.49 1329.42L3209.49 1370 3198.44 1370 3198.44 1322.72C3198.44 1316.93 3197.2 1312.59 3194.72 1309.69 3192.23 1306.8 3188.35 1305.35 3183.07 1305.35 3176.15 1305.35 3171.08 1307.42 3167.87 1311.55 3164.65 1315.68 3163.04 1322.46 3163.04 1331.87L3163.04 1370 3152 1370 3152 1297.33 3160.98 1297.33 3162.78 1307.27 3163.31 1307.27C3165.4 1303.74 3168.33 1300.97 3172.13 1298.98 3175.92 1296.99 3180.17 1296 3184.87 1296Z" fill-rule="evenodd"/><path d="M3582.28 1296C3585.52 1296 3588.43 1296.26 3591 1296.79L3589.47 1307.01C3586.45 1306.34 3583.79 1306.01 3581.48 1306.01 3575.58 1306.01 3570.53 1308.4 3566.34 1313.17 3562.15 1317.95 3560.05 1323.89 3560.05 1331.01L3560.05 1370 3549 1370 3549 1297.33 3558.12 1297.33 3559.38 1310.79 3559.92 1310.79C3562.62 1306.06 3565.88 1302.41 3569.7 1299.85 3573.52 1297.28 3577.71 1296 3582.28 1296Z" fill-rule="evenodd"/><path d="M3679.17 1296C3688.36 1296 3695.62 1298.98 3700.97 1304.95 3706.32 1310.91 3709 1318.78 3709 1328.55L3709 1335.48 3658.5 1335.48C3658.73 1343.97 3660.9 1350.42 3665.02 1354.83 3669.15 1359.23 3674.96 1361.43 3682.45 1361.43 3690.34 1361.43 3698.14 1359.8 3705.86 1356.54L3705.86 1366.31C3701.93 1367.99 3698.22 1369.19 3694.72 1369.91 3691.22 1370.64 3687 1371 3682.05 1371 3671.21 1371 3662.66 1367.74 3656.4 1361.23 3650.13 1354.72 3647 1345.67 3647 1334.09 3647 1322.43 3649.91 1313.16 3655.73 1306.3 3661.55 1299.43 3669.36 1296 3679.17 1296ZM3679.04 1305.18C3673.15 1305.18 3668.46 1307.07 3664.96 1310.85 3661.46 1314.64 3659.4 1319.88 3658.77 1326.57L3697.1 1326.57C3697.1 1319.66 3695.53 1314.36 3692.41 1310.69 3689.29 1307.01 3684.83 1305.18 3679.04 1305.18Z" fill-rule="evenodd"/><path d="M3933.87 1296C3945.27 1296 3952.72 1300.11 3956.23 1308.33L3956.76 1308.33C3958.93 1304.53 3962.08 1301.53 3966.21 1299.31 3970.33 1297.1 3975.03 1296 3980.31 1296 3988.57 1296 3994.74 1298.11 3998.84 1302.33 4002.95 1306.55 4005 1313.31 4005 1322.59L4005 1370 3993.95 1370 3993.95 1322.72C3993.95 1316.93 3992.71 1312.59 3990.23 1309.69 3987.74 1306.8 3983.88 1305.35 3978.65 1305.35 3971.77 1305.35 3966.69 1307.32 3963.41 1311.25 3960.13 1315.19 3958.49 1321.24 3958.49 1329.42L3958.49 1370 3947.44 1370 3947.44 1322.72C3947.44 1316.93 3946.2 1312.59 3943.72 1309.69 3941.23 1306.8 3937.35 1305.35 3932.07 1305.35 3925.15 1305.35 3920.08 1307.42 3916.87 1311.55 3913.65 1315.68 3912.04 1322.46 3912.04 1331.87L3912.04 1370 3901 1370 3901 1297.33 3909.98 1297.33 3911.78 1307.27 3912.31 1307.27C3914.4 1303.74 3917.33 1300.97 3921.13 1298.98 3924.92 1296.99 3929.17 1296 3933.87 1296Z" fill-rule="evenodd"/><path d="M4094.31 1296C4102.2 1296 4109.92 1297.58 4117.46 1300.75L4113.51 1309.67C4106.15 1306.67 4099.48 1305.18 4093.5 1305.18 4088.24 1305.18 4084.27 1305.99 4081.59 1307.62 4078.91 1309.25 4077.57 1311.49 4077.57 1314.35 4077.57 1316.29 4078.08 1317.94 4079.08 1319.31 4080.08 1320.67 4081.7 1321.97 4083.93 1323.2 4086.16 1324.43 4090.45 1326.22 4096.78 1328.55 4105.48 1331.67 4111.36 1334.82 4114.42 1337.99 4117.47 1341.16 4119 1345.14 4119 1349.94 4119 1356.67 4116.46 1361.87 4111.37 1365.52 4106.28 1369.17 4099.15 1371 4089.95 1371 4080.23 1371 4072.64 1369.48 4067.2 1366.45L4067.2 1356.28C4070.73 1358.04 4074.51 1359.42 4078.54 1360.44 4082.58 1361.45 4086.48 1361.95 4090.22 1361.95 4096.02 1361.95 4100.48 1361.04 4103.61 1359.22 4106.73 1357.39 4108.29 1354.61 4108.29 1350.86 4108.29 1348.05 4107.05 1345.64 4104.58 1343.63 4102.1 1341.63 4097.27 1339.27 4090.09 1336.54 4083.26 1334.03 4078.41 1331.84 4075.53 1329.97 4072.66 1328.1 4070.51 1325.97 4069.11 1323.6 4067.7 1321.22 4067 1318.38 4067 1315.08 4067 1309.18 4069.43 1304.53 4074.3 1301.12 4079.16 1297.7 4085.83 1296 4094.31 1296Z" fill-rule="evenodd"/><path d="M4373.67 1296C4383.87 1296 4391.97 1299.37 4397.98 1306.1 4403.99 1312.83 4407 1321.95 4407 1333.43 4407 1345.23 4404.01 1354.44 4398.02 1361.06 4392.03 1367.69 4383.76 1371 4373.2 1371 4366.68 1371 4360.89 1369.48 4355.83 1366.45 4350.78 1363.41 4346.88 1359.05 4344.13 1353.37 4341.38 1347.69 4340 1341.05 4340 1333.43 4340 1321.64 4342.97 1312.45 4348.92 1305.87 4354.86 1299.29 4363.11 1296 4373.67 1296ZM4373.33 1305.31C4366.1 1305.31 4360.65 1307.66 4356.97 1312.37 4353.29 1317.08 4351.44 1324.1 4351.44 1333.43 4351.44 1342.68 4353.31 1349.72 4357.03 1354.56 4360.76 1359.4 4366.24 1361.82 4373.47 1361.82 4380.7 1361.82 4386.19 1359.41 4389.93 1354.59 4393.68 1349.77 4395.56 1342.72 4395.56 1333.43 4395.56 1324.23 4393.68 1317.25 4389.93 1312.47 4386.19 1307.7 4380.65 1305.31 4373.33 1305.31Z" fill-rule="evenodd"/><path d="M4736.17 1296C4745.36 1296 4752.62 1298.98 4757.97 1304.95 4763.32 1310.91 4766 1318.78 4766 1328.55L4766 1335.48 4715.5 1335.48C4715.73 1343.97 4717.9 1350.42 4722.02 1354.83 4726.15 1359.23 4731.96 1361.43 4739.45 1361.43 4747.34 1361.43 4755.14 1359.8 4762.86 1356.54L4762.86 1366.31C4758.93 1367.99 4755.22 1369.19 4751.72 1369.91 4748.22 1370.64 4744 1371 4739.05 1371 4728.21 1371 4719.66 1367.74 4713.4 1361.23 4707.13 1354.72 4704 1345.67 4704 1334.09 4704 1322.43 4706.91 1313.16 4712.73 1306.3 4718.55 1299.43 4726.36 1296 4736.17 1296ZM4736.04 1305.18C4730.15 1305.18 4725.46 1307.07 4721.96 1310.85 4718.46 1314.64 4716.4 1319.88 4715.77 1326.57L4754.1 1326.57C4754.1 1319.66 4752.53 1314.36 4749.41 1310.69 4746.29 1307.01 4741.83 1305.18 4736.04 1305.18Z" fill-rule="evenodd"/><path d="M4855.31 1296C4863.2 1296 4870.92 1297.58 4878.46 1300.75L4874.51 1309.67C4867.15 1306.67 4860.48 1305.18 4854.5 1305.18 4849.24 1305.18 4845.27 1305.99 4842.59 1307.62 4839.91 1309.25 4838.57 1311.49 4838.57 1314.35 4838.57 1316.29 4839.08 1317.94 4840.08 1319.31 4841.08 1320.67 4842.7 1321.97 4844.93 1323.2 4847.16 1324.43 4851.45 1326.22 4857.78 1328.55 4866.48 1331.67 4872.36 1334.82 4875.42 1337.99 4878.47 1341.16 4880 1345.14 4880 1349.94 4880 1356.67 4877.46 1361.87 4872.37 1365.52 4867.28 1369.17 4860.15 1371 4850.95 1371 4841.23 1371 4833.64 1369.48 4828.2 1366.45L4828.2 1356.28C4831.73 1358.04 4835.51 1359.42 4839.54 1360.44 4843.58 1361.45 4847.48 1361.95 4851.22 1361.95 4857.02 1361.95 4861.48 1361.04 4864.61 1359.22 4867.73 1357.39 4869.29 1354.61 4869.29 1350.86 4869.29 1348.05 4868.05 1345.64 4865.58 1343.63 4863.1 1341.63 4858.27 1339.27 4851.09 1336.54 4844.26 1334.03 4839.41 1331.84 4836.53 1329.97 4833.66 1328.1 4831.51 1325.97 4830.11 1323.6 4828.7 1321.22 4828 1318.38 4828 1315.08 4828 1309.18 4830.43 1304.53 4835.3 1301.12 4840.16 1297.7 4846.83 1296 4855.31 1296Z" fill-rule="evenodd"/><path d="M5151.5 1296C5160.29 1296 5166.9 1298.11 5171.34 1302.33 5175.78 1306.55 5178 1313.31 5178 1322.59L5178 1370 5166.95 1370 5166.95 1322.99C5166.95 1317.06 5165.59 1312.64 5162.88 1309.72 5160.18 1306.81 5155.93 1305.35 5150.16 1305.35 5142.53 1305.35 5136.93 1307.4 5133.38 1311.52 5129.83 1315.63 5128.05 1322.41 5128.05 1331.87L5128.05 1370 5117 1370 5117 1297.33 5125.99 1297.33 5127.79 1307.27 5128.32 1307.27C5130.58 1303.69 5133.76 1300.92 5137.84 1298.95 5141.93 1296.98 5146.48 1296 5151.5 1296Z" fill-rule="evenodd"/><path d="M5566.67 1296C5576.87 1296 5584.97 1299.37 5590.98 1306.1 5596.99 1312.83 5600 1321.95 5600 1333.43 5600 1345.23 5597.01 1354.44 5591.02 1361.06 5585.03 1367.69 5576.76 1371 5566.2 1371 5559.68 1371 5553.89 1369.48 5548.83 1366.45 5543.78 1363.41 5539.88 1359.05 5537.13 1353.37 5534.38 1347.69 5533 1341.05 5533 1333.43 5533 1321.64 5535.97 1312.45 5541.92 1305.87 5547.86 1299.29 5556.11 1296 5566.67 1296ZM5566.33 1305.31C5559.1 1305.31 5553.65 1307.66 5549.97 1312.37 5546.29 1317.08 5544.44 1324.1 5544.44 1333.43 5544.44 1342.68 5546.31 1349.72 5550.03 1354.56 5553.76 1359.4 5559.24 1361.82 5566.47 1361.82 5573.7 1361.82 5579.19 1359.41 5582.93 1354.59 5586.68 1349.77 5588.56 1342.72 5588.56 1333.43 5588.56 1324.23 5586.68 1317.25 5582.93 1312.47 5579.19 1307.7 5573.65 1305.31 5566.33 1305.31Z" fill-rule="evenodd"/><path d="M5696.5 1296C5705.29 1296 5711.9 1298.11 5716.34 1302.33 5720.78 1306.55 5723 1313.31 5723 1322.59L5723 1370 5711.95 1370 5711.95 1322.99C5711.95 1317.06 5710.59 1312.64 5707.88 1309.72 5705.18 1306.81 5700.94 1305.35 5695.16 1305.35 5687.53 1305.35 5681.93 1307.4 5678.38 1311.52 5674.83 1315.63 5673.05 1322.41 5673.05 1331.87L5673.05 1370 5662 1370 5662 1297.33 5670.99 1297.33 5672.79 1307.27 5673.32 1307.27C5675.58 1303.69 5678.76 1300.92 5682.84 1298.95 5686.93 1296.98 5691.48 1296 5696.5 1296Z" fill-rule="evenodd"/><path d="M5809.31 1296C5817.2 1296 5824.92 1297.58 5832.46 1300.75L5828.51 1309.67C5821.15 1306.67 5814.48 1305.18 5808.5 1305.18 5803.24 1305.18 5799.27 1305.99 5796.59 1307.62 5793.91 1309.25 5792.57 1311.49 5792.57 1314.35 5792.57 1316.29 5793.08 1317.94 5794.08 1319.31 5795.08 1320.67 5796.7 1321.97 5798.93 1323.2 5801.16 1324.43 5805.45 1326.22 5811.78 1328.55 5820.48 1331.67 5826.36 1334.82 5829.42 1337.99 5832.47 1341.16 5834 1345.14 5834 1349.94 5834 1356.67 5831.46 1361.87 5826.37 1365.52 5821.28 1369.17 5814.15 1371 5804.96 1371 5795.23 1371 5787.64 1369.48 5782.2 1366.45L5782.2 1356.28C5785.73 1358.04 5789.51 1359.42 5793.54 1360.44 5797.58 1361.45 5801.48 1361.95 5805.22 1361.95 5811.02 1361.95 5815.48 1361.04 5818.61 1359.22 5821.73 1357.39 5823.29 1354.61 5823.29 1350.86 5823.29 1348.05 5822.05 1345.64 5819.58 1343.63 5817.1 1341.63 5812.27 1339.27 5805.09 1336.54 5798.26 1334.03 5793.41 1331.84 5790.53 1329.97 5787.66 1328.1 5785.51 1325.97 5784.11 1323.6 5782.7 1321.22 5782 1318.38 5782 1315.08 5782 1309.18 5784.43 1304.53 5789.29 1301.12 5794.16 1297.7 5800.83 1296 5809.31 1296Z" fill-rule="evenodd"/><path d="M3803.6 1296C3812.22 1296 3818.61 1297.92 3822.76 1301.75 3826.92 1305.59 3829 1311.74 3829 1320.21L3829 1369.68 3820.88 1369.68 3818.71 1359.36 3818.18 1359.36C3814.57 1363.9 3810.98 1366.98 3807.39 1368.59 3803.81 1370.2 3799.33 1371 3793.96 1371 3786.79 1371 3781.17 1369.15 3777.1 1365.44 3773.03 1361.74 3771 1356.47 3771 1349.64 3771 1335 3782.68 1327.33 3806.04 1326.62L3818.31 1326.23 3818.31 1321.73C3818.31 1316.04 3817.09 1311.84 3814.65 1309.13 3812.21 1306.42 3808.3 1305.06 3802.94 1305.06 3796.91 1305.06 3790.09 1306.91 3782.48 1310.62L3779.12 1302.22C3782.68 1300.28 3786.58 1298.76 3790.83 1297.65 3795.07 1296.55 3799.33 1296 3803.6 1296ZM3818.05 1334.03 3807.09 1334.49C3798.38 1334.8 3792.1 1336.16 3788.26 1338.56 3784.41 1340.96 3782.48 1344.7 3782.48 1349.77 3782.48 1353.74 3783.68 1356.76 3786.08 1358.83 3788.48 1360.9 3791.83 1361.94 3796.14 1361.94 3802.96 1361.94 3808.31 1360.07 3812.21 1356.32 3816.1 1352.57 3818.05 1347.32 3818.05 1340.58L3818.05 1334.03Z" fill-rule="evenodd"/><path d="M5269.16 1296C5277.93 1296 5284.43 1297.92 5288.66 1301.75 5292.89 1305.59 5295 1311.74 5295 1320.21L5295 1369.68 5286.74 1369.68 5284.53 1359.36 5283.99 1359.36C5280.32 1363.9 5276.66 1366.98 5273.02 1368.59 5269.37 1370.2 5264.82 1371 5259.36 1371 5252.06 1371 5246.35 1369.15 5242.21 1365.44 5238.07 1361.74 5236 1356.47 5236 1349.64 5236 1335 5247.88 1327.33 5271.64 1326.62L5284.13 1326.23 5284.13 1321.73C5284.13 1316.04 5282.88 1311.84 5280.4 1309.13 5277.92 1306.42 5273.95 1305.06 5268.49 1305.06 5262.36 1305.06 5255.42 1306.91 5247.68 1310.62L5244.26 1302.22C5247.88 1300.28 5251.85 1298.76 5256.17 1297.65 5260.49 1296.55 5264.82 1296 5269.16 1296ZM5283.86 1334.03 5272.72 1334.49C5263.86 1334.8 5257.47 1336.16 5253.55 1338.56 5249.64 1340.96 5247.68 1344.7 5247.68 1349.77 5247.68 1353.74 5248.9 1356.76 5251.34 1358.83 5253.78 1360.9 5257.19 1361.94 5261.57 1361.94 5268.51 1361.94 5273.96 1360.07 5277.92 1356.32 5281.88 1352.57 5283.86 1347.32 5283.86 1340.58L5283.86 1334.03Z" fill-rule="evenodd"/><path d="M5037 1297 5048 1297 5048 1370 5037 1370 5037 1297Z" fill-rule="evenodd"/><path d="M5458 1297 5469 1297 5469 1370 5458 1370 5458 1297Z" fill-rule="evenodd"/></g></svg>