<svg width="1097" height="1096" xmlns="http://www.w3.org/2000/svg" xmlns:xlink="http://www.w3.org/1999/xlink" xml:space="preserve" overflow="hidden"><defs><clipPath id="clip0"><rect x="2202" y="2900" width="1097" height="1096"/></clipPath></defs><g clip-path="url(#clip0)" transform="translate(-2202 -2900)"><path d="M2202 3082.67C2202 2981.78 2283.78 2900 2384.67 2900L3116.33 2900C3217.22 2900 3299 2981.78 3299 3082.67L3299 3813.33C3299 3914.22 3217.22 3996 3116.33 3996L2384.67 3996C2283.78 3996 2202 3914.22 2202 3813.33Z" fill="#FFFFFF" fill-rule="evenodd"/><path d="M273.68 84.9744 75.6308 407.254 471.729 407.254ZM273.681 0 547.36 445.352 0 445.352Z" fill="#F97316" fill-rule="evenodd" transform="matrix(0.866025 0.5 0.5 -0.866025 2269.58 3756.97)"/><path d="M2511.59 3337.79 3017.61 3008.71 2985.62 3611.47Z" fill="#1E293B" fill-rule="evenodd"/></g></svg>