<svg width="4295" height="1172" xmlns="http://www.w3.org/2000/svg" xmlns:xlink="http://www.w3.org/1999/xlink" xml:space="preserve" overflow="hidden"><defs><clipPath id="clip0"><rect x="1569" y="1608" width="4295" height="1172"/></clipPath></defs><g clip-path="url(#clip0)" transform="translate(-1569 -1608)"><path d="M3850.14 2017 3967.86 2017C4059.06 2017 4133 2090.79 4133 2181.82L4133 2473 3991.71 2473 3991.71 2214.99C3991.71 2169.4 3954.68 2132.45 3909 2132.45L3909 2132.45 3909 2132.45C3863.32 2132.45 3826.29 2169.4 3826.29 2214.99L3826.29 2473 3685 2473 3685 2181.82C3685 2090.79 3758.94 2017 3850.14 2017Z" fill="#1E293B" fill-rule="evenodd"/><path d="M2537 1907 2683.98 1907 2824.5 2334.32 2965.83 1907 3112 1907 2910.91 2473 2738.09 2473 2537 1907Z" fill="#1E293B" fill-rule="evenodd"/><path d="M4226 1907 4363.88 1907 4363.88 2017.92 4454.19 2017.92 4454.19 2133.73 4363.88 2133.73 4363.88 2316.41C4363.88 2330.01 4367.11 2339.79 4373.56 2345.77 4380.01 2351.75 4390.76 2354.74 4405.81 2354.74L4455 2354.74 4455 2473 4384.85 2473C4334.86 2473 4295.88 2460.63 4267.93 2435.89 4239.98 2411.15 4226 2370.78 4226 2314.78L4226 2133.73 4226 1907Z" fill="#F97316" fill-rule="evenodd"/><path d="M3366.61 2010C3410.2 2010 3448.94 2019.14 3482.84 2037.43 3516.74 2055.71 3543.24 2081.79 3562.35 2115.67 3581.45 2149.55 3591 2189.07 3591 2234.24 3591 2247.15 3590.19 2260.59 3588.58 2274.57L3276.21 2274.57C3278.37 2302.53 3287.38 2323.91 3303.25 2338.7 3319.13 2353.49 3338.63 2360.88 3361.77 2360.88 3396.21 2360.88 3420.16 2346.36 3433.61 2317.32L3580.51 2317.32C3572.97 2346.9 3559.39 2373.52 3539.75 2397.18 3520.11 2420.84 3495.49 2439.39 3465.89 2452.83 3436.3 2466.28 3403.2 2473 3366.61 2473 3322.49 2473 3283.21 2463.59 3248.77 2444.77 3214.33 2425.95 3187.43 2399.06 3168.06 2364.11 3148.69 2329.15 3139 2288.28 3139 2241.5 3139 2194.72 3148.55 2153.85 3167.65 2118.89 3186.76 2083.94 3213.53 2057.05 3247.96 2038.23 3282.4 2019.41 3321.95 2010 3366.61 2010ZM3365 2120.51C3341.86 2120.51 3322.36 2127.23 3306.48 2140.67 3290.61 2154.12 3280.79 2173.21 3277.02 2197.94L3449.75 2197.94C3449.75 2174.28 3441.68 2155.46 3425.54 2141.48 3409.39 2127.5 3389.21 2120.51 3365 2120.51Z" fill="#1E293B" fill-rule="evenodd"/><path d="M165.142 0 282.858 0C374.064 0 448 73.7938 448 164.824L448 456 306.707 456 306.707 197.993C306.707 152.403 269.678 115.445 223.999 115.445L223.999 115.445 223.998 115.445C178.32 115.445 141.291 152.403 141.291 197.993L141.291 456 0 456 0 164.824C0 73.7938 73.9363 0 165.142 0Z" fill="#1E293B" fill-rule="evenodd" transform="matrix(1 0 0 -1 4548 2473)"/><path d="M5639.61 2010C5683.2 2010 5721.94 2019.14 5755.84 2037.43 5789.74 2055.71 5816.24 2081.79 5835.35 2115.67 5854.45 2149.55 5864 2189.07 5864 2234.24 5864 2247.15 5863.19 2260.59 5861.58 2274.57L5549.21 2274.57C5551.37 2302.53 5560.38 2323.91 5576.25 2338.7 5592.13 2353.49 5611.63 2360.88 5634.77 2360.88 5669.21 2360.88 5693.15 2346.36 5706.61 2317.32L5853.51 2317.32C5845.97 2346.9 5832.39 2373.52 5812.75 2397.18 5793.1 2420.84 5768.49 2439.39 5738.89 2452.83 5709.3 2466.28 5676.2 2473 5639.61 2473 5595.49 2473 5556.21 2463.59 5521.77 2444.77 5487.33 2425.95 5460.43 2399.06 5441.06 2364.11 5421.69 2329.15 5412 2288.28 5412 2241.5 5412 2194.72 5421.55 2153.85 5440.65 2118.89 5459.76 2083.94 5486.53 2057.05 5520.96 2038.23 5555.4 2019.41 5594.95 2010 5639.61 2010ZM5638 2120.51C5614.86 2120.51 5595.36 2127.23 5579.48 2140.67 5563.61 2154.12 5553.79 2173.21 5550.02 2197.94L5722.75 2197.94C5722.75 2174.28 5714.68 2155.46 5698.54 2141.48 5682.39 2127.5 5662.21 2120.51 5638 2120.51Z" fill="#1E293B" fill-rule="evenodd"/><path d="M5286.85 2010 5357 2010 5357 2128.31 5307.81 2128.31C5292.76 2128.31 5282.01 2131.3 5275.56 2137.28 5269.11 2143.27 5265.88 2153.06 5265.88 2166.66L5265.88 2473 5128 2473 5128 2349.42 5128 2168.29C5128 2112.26 5141.98 2071.87 5169.93 2047.12 5197.88 2022.37 5236.86 2010 5286.85 2010Z" fill="#1E293B" fill-rule="evenodd"/><path d="M362.063 112.416 100.055 538.774 624.07 538.774ZM362.064 0 724.126 589.176 0 589.176Z" fill="#F97316" fill-rule="evenodd" transform="matrix(0.866025 0.5 0.5 -0.866025 1274.97 2598.71)"/><path d="M1595.14 2044.17 2264.57 1608.81 2222.25 2406.23Z" fill="#1E293B" fill-rule="evenodd"/></g></svg>